Coordinates
version=1
nRows=43
nColumns=12
inDegrees=yes

Units are S.I. units (second, meters, Newtons, ...)
Angles are in degrees

endheader
time	SC_y	SC_z	SC_x	AC_y	AC_z	AC_x	GH_y	GH_z	GH_yy	EL_x	PS_y
       0.0              -59.12        -0.6133          1.251          63.11          -17.7         -2.733         -143.5          83.81          57.44           18.8          69.33
   0.03489              -59.12        -0.6086          1.258          63.11          -17.7         -2.734         -143.5           83.8          57.42          18.81          69.33
   0.06978              -59.12        -0.6035          1.265          63.11          -17.7         -2.735         -143.5          83.79           57.4          18.83          69.33
    0.1047              -59.12        -0.5981          1.273           63.1          -17.7         -2.736         -143.5          83.77          57.38          18.85          69.34
    0.1396              -59.11        -0.5923          1.282           63.1         -17.69         -2.738         -143.5          83.75          57.36          18.87          69.34
    0.1744              -59.11        -0.5862          1.291           63.1         -17.69         -2.739         -143.5          83.73          57.33          18.89          69.34
    0.2093              -59.11        -0.5796          1.301          63.09         -17.69          -2.74         -143.5          83.71          57.31          18.91          69.34
    0.2442              -59.11        -0.5726          1.311          63.09         -17.69         -2.742         -143.5          83.69          57.28          18.94          69.35
    0.2791               -59.1        -0.5651          1.322          63.08         -17.68         -2.744         -143.5          83.67          57.25          18.96          69.35
     0.314               -59.1        -0.5571          1.334          63.08         -17.68         -2.745         -143.5          83.65          57.22          18.99          69.35
    0.3489               -59.1        -0.5484          1.347          63.07         -17.68         -2.747         -143.5          83.62          57.19          19.02          69.36
    0.3838              -59.09        -0.5391          1.361          63.07         -17.68         -2.749         -143.5          83.59          57.16          19.05          69.36
    0.4187              -59.09        -0.5291          1.376          63.06         -17.67         -2.752         -143.5          83.56          57.12          19.08          69.37
    0.4536              -59.08        -0.5182          1.392          63.05         -17.67         -2.754         -143.5          83.53          57.08          19.12          69.37
    0.4884              -59.08        -0.5065          1.409          63.05         -17.66         -2.757         -143.5           83.5          57.03          19.16          69.38
    0.5233              -59.07        -0.4938          1.428          63.04         -17.66          -2.76         -143.5          83.46          56.99           19.2          69.38
    0.5582              -59.07          -0.48          1.449          63.03         -17.65         -2.763         -143.6          83.42          56.93          19.25          69.39
    0.5931              -59.06        -0.4649          1.471          63.02         -17.65         -2.766         -143.6          83.37          56.88           19.3           69.4
     0.628              -59.05        -0.4485          1.496          63.01         -17.64          -2.77         -143.6          83.32          56.81          19.36           69.4
    0.6629              -59.05        -0.4305          1.522           63.0         -17.64         -2.774         -143.6          83.27          56.75          19.42          69.41
    0.6978              -59.04        -0.4107          1.552          62.99         -17.63         -2.778         -143.6          83.21          56.67          19.49          69.42
    0.7327              -59.03         -0.389          1.584          62.97         -17.62         -2.783         -143.6          83.15          56.59          19.56          69.43
    0.7676              -59.02        -0.3649           1.62          62.96         -17.61         -2.788         -143.6          83.08           56.5          19.64          69.44
    0.8024              -59.01        -0.3383          1.659          62.94         -17.61         -2.794         -143.6           83.0           56.4          19.73          69.46
    0.8373               -59.0        -0.3087          1.703          62.92          -17.6         -2.801         -143.6          82.91          56.29          19.83          69.47
    0.8722              -58.98        -0.2757          1.752           62.9         -17.58         -2.808         -143.7          82.81          56.16          19.95          69.48
    0.9071              -58.97        -0.2387          1.807          62.88         -17.57         -2.816         -143.7           82.7          56.02          20.07           69.5
     0.942              -58.95        -0.1971          1.869          62.85         -17.56         -2.825         -143.7          82.58          55.87          20.21          69.52
    0.9769              -58.93        -0.1501          1.939          62.83         -17.54         -2.836         -143.7          82.44          55.69          20.37          69.54
     1.012              -58.91       -0.09669          2.018          62.79         -17.52         -2.848         -143.7          82.28          55.49          20.56          69.57
     1.047              -58.88       -0.03575          2.109          62.75          -17.5         -2.861         -143.8           82.1          55.26          20.76           69.6
     1.082              -58.85        0.03418          2.213          62.71         -17.48         -2.877         -143.8          81.89          54.99           21.0          69.63
     1.116              -58.82         0.1149          2.333          62.66         -17.45         -2.895         -143.9          81.65          54.69          21.28          69.67
     1.151              -58.78         0.2087          2.472           62.6         -17.42         -2.916         -143.9          81.37          54.33           21.6          69.71
     1.186              -58.74         0.3185          2.635          62.54         -17.38          -2.94         -144.0          81.04          53.92          21.97          69.76
     1.221              -58.68         0.4479          2.828          62.46         -17.33         -2.969         -144.0          80.66          53.43          22.41          69.82
     1.256              -58.62         0.6017          3.056          62.36         -17.28         -3.003         -144.1           80.2          52.85          22.93          69.89
     1.291              -58.54          0.786           3.33          62.25         -17.22         -3.044         -144.2          79.65          52.15          23.56          69.98
     1.326              -58.45          1.009          3.662          62.11         -17.14         -3.094         -144.3          78.99          51.31          24.32          70.08
     1.361              -58.34          1.281          4.066          61.94         -17.04         -3.154         -144.4          78.18          50.28          25.25          70.21
     1.396               -58.2          1.618          4.566          61.73         -16.93         -3.229         -144.6          77.18          49.02          26.39          70.36
      1.43              -58.03          2.037          5.189          61.47         -16.78         -3.322         -144.8          75.93          47.43          27.82          70.56
     1.465              -57.81          2.565          5.974          61.15          -16.6          -3.44         -145.1          74.36          45.44          29.62           70.8
